<?xml version="1.0" encoding="utf-8"?>
<!-- Generator: Adobe Illustrator 16.0.4, SVG Export Plug-In . SVG Version: 6.00 Build 0)  -->
<!DOCTYPE svg PUBLIC "-//W3C//DTD SVG 1.1//EN" "http://www.w3.org/Graphics/SVG/1.1/DTD/svg11.dtd">
<svg version="1.1" id="Layer_1" xmlns="http://www.w3.org/2000/svg" xmlns:xlink="http://www.w3.org/1999/xlink" x="0px" y="0px"
	 width="411.111px" height="115.032px" viewBox="0 0 411.111 115.032" enable-background="new 0 0 411.111 115.032"
	 xml:space="preserve">
<g>
	<g>
			<linearGradient id="SVGID_1_" gradientUnits="userSpaceOnUse" x1="202.2393" y1="-25.4062" x2="202.2393" y2="50.7846" gradientTransform="matrix(1 0 0 1 0 50.6641)">
			<stop  offset="0" style="stop-color:#6B788A"/>
			<stop  offset="1" style="stop-color:#434C58"/>
		</linearGradient>
		<path fill="url(#SVGID_1_)" d="M24.071,61.112c0.918-18.009,14.202-32.446,31.207-35.534c-0.956-0.122-1.924-0.221-2.904-0.27
			C31.36,24.237,13.458,40.402,12.387,61.416c-1.071,21.009,15.094,38.914,36.106,39.985c3.005,0.152,5.941-0.06,8.778-0.574
			C37.698,98.336,23.049,81.142,24.071,61.112z M156.594,27.648h-18.375l-15.911,22.186L108.19,27.648l-19.273,0.223l26.668,36.305
			L88.021,100.48h18.6l16.807-24.429l15.238,24.429h19.72L131.046,62.83L156.594,27.648z M178.496,56.781l-10.981-16.583h-12.772
			l19.046,26.667v21.064h9.861V66.641l18.039-26.443h-11.764L178.496,56.781z M216.025,72.913c0-7.393,0-32.604,0-32.604h-7.508
			c0,0,0,22.634,0,35.182c0,12.551,11.318,12.438,11.318,12.438h20.057V80.42h-17.48C222.412,80.42,216.025,80.31,216.025,72.913z
			 M245.754,63.952c0,23.754,15.238,23.867,15.238,23.867h22.412V80.42h-20.057c0,0-6.547,0.086-7.588-12.657h27.645v-7.397h-27.625
			c1.096-12.558,7.568-12.662,7.568-12.662h20.168V40.31h-22.523C260.992,40.31,245.754,40.197,245.754,63.952z M371.975,47.704
			h20.166V40.31h-22.52c0,0-15.24-0.112-15.24,23.643c0,23.754,15.24,23.867,15.24,23.867h22.408V80.42h-20.055
			c0,0-6.549,0.086-7.592-12.657h27.646v-7.397h-27.625C365.502,47.808,371.975,47.704,371.975,47.704z M319.42,77.735
			L306.871,40.31h-12.662v47.619h7.73l-0.113-35.07l12.775,35.07h9.973l12.549-37.537v37.537h7.395V40.197h-12.551L319.42,77.735z"
			/>
	</g>
</g>
<linearGradient id="SVGID_2_" gradientUnits="userSpaceOnUse" x1="45.9644" y1="63.3535" x2="77.436" y2="63.3535">
	<stop  offset="0" style="stop-color:#FFD127"/>
	<stop  offset="1" style="stop-color:#FBA92D"/>
</linearGradient>
<path fill="url(#SVGID_2_)" d="M69.128,65.132c-0.782,12.716-10.273,22.814-22.311,24.875c0.676,0.092,1.358,0.168,2.052,0.212
	c14.836,0.911,27.603-10.378,28.515-25.216C78.296,50.167,67.007,37.4,52.17,36.486c-2.122-0.13-4.197-0.002-6.206,0.34
	C59.776,38.731,69.998,50.986,69.128,65.132z M45.964,36.827"/>
</svg>
