<svg id="visual" viewBox="0 0 1895 500" width="1895" height="500" xmlns="http://www.w3.org/2000/svg" xmlns:xlink="http://www.w3.org/1999/xlink" version="1.1"><path d="M0 252L45.2 244.2C90.3 236.3 180.7 220.7 270.8 222C361 223.3 451 241.7 541.2 239.2C631.3 236.7 721.7 213.3 812 202.8C902.3 192.3 992.7 194.7 1083 203.5C1173.3 212.3 1263.7 227.7 1353.8 242C1444 256.3 1534 269.7 1624.2 264.8C1714.3 260 1804.7 237 1849.8 225.5L1895 214L1895 0L1849.8 0C1804.7 0 1714.3 0 1624.2 0C1534 0 1444 0 1353.8 0C1263.7 0 1173.3 0 1083 0C992.7 0 902.3 0 812 0C721.7 0 631.3 0 541.2 0C451 0 361 0 270.8 0C180.7 0 90.3 0 45.2 0L0 0Z" fill="#B9DBD1" stroke-linecap="round" stroke-linejoin="miter"/></svg>